<svg fill="none" viewBox="0 0 240 360" xmlns="http://www.w3.org/2000/svg">
    <path d="m34 311 59.5 23.757v-103.05l-59.5 22.791v56.5z" fill="#005DC5"/>
    <path d="m93.5 231.71v37.548l-47.996-19.164 47.996-18.384z" fill="#0354BF"/>
    <path d="M34 149V90.5L93.5 67.7091V126.209L34 149Z" fill="url(#c)"/>
    <path d="M205 83.5V25L93.5 67.7091V126.209L205 83.5Z" fill="url(#b)"/>
    <path d="M34 149L93.5 126.209V172.757L34 149Z" fill="#005DC5"/>
    <path d="m158.5 206.81v-58.951l-65 24.897 65 34.054z" fill="#005DC5"/>
    <path d="m34 254.5v-58.952l59.5-22.791 65 34.054-65 24.898-59.5 22.791z" fill="url(#a)"/>
    <defs>
        <linearGradient id="c" x1="93.5" x2="34.5" y1="87" y2="127.5" gradientUnits="userSpaceOnUse">
            <stop stop-color="#05A4F8" offset="0"/>
            <stop stop-color="#0088EB" offset="1"/>
        </linearGradient>
        <linearGradient id="b" x1="205.5" x2="93.5" y1="25" y2="67.5" gradientUnits="userSpaceOnUse">
            <stop stop-color="#05A4F8" offset="0"/>
            <stop stop-color="#005DC5" offset="1"/>
        </linearGradient>
        <linearGradient id="a" x1="122" x2="40" y1="193" y2="227" gradientUnits="userSpaceOnUse">
            <stop stop-color="#0589EE" offset="0"/>
            <stop stop-color="#0E6EDF" offset="1"/>
        </linearGradient>
    </defs>
</svg>
