<svg viewBox="0 0 855 207" fill="none" xmlns="http://www.w3.org/2000/svg">
<path d="M34 163.496L62.8129 175V143.282V125.099L39.5709 134.002L34 136.135V163.496Z" fill="#005DC5"/>
<path d="M62.8128 125.099V143.282L39.5708 134.002L62.8128 125.099Z" fill="#0354BF"/>
<path d="M34 85.047V56.7184L62.8129 45.6819V74.0105L34 85.047Z" fill="url(#paint0_linear_32_235)"/>
<path d="M116.807 53.3286V25L62.813 45.6819V74.0105L116.807 53.3286Z" fill="url(#paint1_linear_32_235)"/>
<path d="M34 85.047L62.8129 74.0105V96.5515L34 85.047Z" fill="#005DC5"/>
<path d="M94.2892 113.042V84.4948L62.813 96.5514L94.2892 113.042Z" fill="#005DC5"/>
<path d="M34 136.135V107.588L62.8129 96.5515L94.2891 113.042L62.8129 125.099L39.5709 134.001L34 136.135Z" fill="url(#paint2_linear_32_235)"/>
<path d="M163.672 150V77.808C163.672 70.64 165.763 64.9227 169.944 60.656C174.211 56.304 180.27 54.128 188.12 54.128C190.936 54.128 193.582 54.4267 196.056 55.024C198.616 55.6213 200.75 56.56 202.456 57.84L198.104 69.872C196.91 68.9333 195.544 68.2507 194.008 67.824C192.472 67.312 190.894 67.056 189.272 67.056C185.944 67.056 183.427 67.9947 181.72 69.872C180.014 71.664 179.16 74.3947 179.16 78.064V85.744L179.672 92.912V150H163.672ZM152.408 94.96V82.16H197.976V94.96H152.408Z" fill="currentColor"/>
<path d="M237.314 150.896C229.72 150.896 223.064 149.403 217.346 146.416C211.714 143.344 207.32 139.163 204.162 133.872C201.09 128.581 199.554 122.565 199.554 115.824C199.554 108.997 201.048 102.981 204.034 97.776C207.106 92.4853 211.288 88.3467 216.578 85.36C221.954 82.3733 228.056 80.88 234.882 80.88C241.538 80.88 247.469 82.3307 252.674 85.232C257.88 88.1333 261.976 92.2293 264.962 97.52C267.949 102.811 269.442 109.04 269.442 116.208C269.442 116.891 269.4 117.659 269.314 118.512C269.314 119.365 269.272 120.176 269.186 120.944H212.226V110.32H260.738L254.466 113.648C254.552 109.723 253.741 106.267 252.034 103.28C250.328 100.293 247.981 97.9467 244.994 96.24C242.093 94.5333 238.722 93.68 234.882 93.68C230.957 93.68 227.501 94.5333 224.514 96.24C221.613 97.9467 219.309 100.336 217.602 103.408C215.981 106.395 215.17 109.936 215.17 114.032V116.592C215.17 120.688 216.109 124.315 217.986 127.472C219.864 130.629 222.509 133.061 225.922 134.768C229.336 136.475 233.261 137.328 237.698 137.328C241.538 137.328 244.994 136.731 248.066 135.536C251.138 134.341 253.869 132.464 256.258 129.904L264.834 139.76C261.762 143.344 257.88 146.117 253.186 148.08C248.578 149.957 243.288 150.896 237.314 150.896Z" fill="currentColor"/>
<path d="M322.488 150V136.176L321.592 133.232V109.04C321.592 104.347 320.184 100.72 317.368 98.16C314.552 95.5147 310.286 94.192 304.568 94.192C300.728 94.192 296.931 94.7893 293.176 95.984C289.507 97.1787 286.392 98.8427 283.832 100.976L277.56 89.328C281.23 86.512 285.582 84.4213 290.616 83.056C295.736 81.6053 301.027 80.88 306.488 80.88C316.387 80.88 324.024 83.2693 329.4 88.048C334.862 92.7413 337.592 100.037 337.592 109.936V150H322.488ZM300.984 150.896C295.864 150.896 291.384 150.043 287.544 148.336C283.704 146.544 280.718 144.112 278.584 141.04C276.536 137.883 275.512 134.341 275.512 130.416C275.512 126.576 276.408 123.12 278.2 120.048C280.078 116.976 283.107 114.544 287.288 112.752C291.47 110.96 297.016 110.064 303.928 110.064H323.768V120.688H305.08C299.619 120.688 295.95 121.584 294.072 123.376C292.195 125.083 291.256 127.216 291.256 129.776C291.256 132.677 292.408 134.981 294.712 136.688C297.016 138.395 300.216 139.248 304.312 139.248C308.238 139.248 311.736 138.352 314.808 136.56C317.966 134.768 320.227 132.123 321.592 128.624L324.28 138.224C322.744 142.235 319.971 145.349 315.96 147.568C312.035 149.787 307.043 150.896 300.984 150.896Z" fill="currentColor"/>
<path d="M381.294 150.896C373.785 150.896 367.982 148.976 363.886 145.136C359.79 141.211 357.742 135.451 357.742 127.856V66.544H373.742V127.472C373.742 130.715 374.553 133.232 376.174 135.024C377.881 136.816 380.228 137.712 383.214 137.712C386.798 137.712 389.785 136.773 392.174 134.896L396.654 146.288C394.777 147.824 392.473 148.976 389.742 149.744C387.012 150.512 384.196 150.896 381.294 150.896ZM346.478 94.448V81.648H392.046V94.448H346.478Z" fill="currentColor"/>
<path d="M436.184 150.896C430.382 150.896 425.262 149.829 420.824 147.696C416.387 145.477 412.931 142.149 410.456 137.712C407.982 133.189 406.744 127.515 406.744 120.688V81.648H422.744V118.512C422.744 124.656 424.11 129.264 426.84 132.336C429.656 135.323 433.624 136.816 438.744 136.816C442.499 136.816 445.742 136.048 448.472 134.512C451.288 132.976 453.464 130.672 455 127.6C456.622 124.528 457.432 120.731 457.432 116.208V81.648H473.432V150H458.2V131.568L460.888 137.2C458.584 141.637 455.214 145.051 450.776 147.44C446.339 149.744 441.475 150.896 436.184 150.896Z" fill="currentColor"/>
<path d="M491.821 150V81.648H507.053V100.464L505.261 94.96C507.309 90.352 510.509 86.8533 514.861 84.464C519.299 82.0747 524.803 80.88 531.373 80.88V96.112C530.691 95.9413 530.051 95.856 529.453 95.856C528.856 95.7707 528.259 95.728 527.661 95.728C521.603 95.728 516.781 97.52 513.197 101.104C509.613 104.603 507.821 109.851 507.821 116.848V150H491.821Z" fill="currentColor"/>
<path d="M573.889 150.896C566.295 150.896 559.639 149.403 553.921 146.416C548.289 143.344 543.895 139.163 540.737 133.872C537.665 128.581 536.129 122.565 536.129 115.824C536.129 108.997 537.623 102.981 540.609 97.776C543.681 92.4853 547.863 88.3467 553.153 85.36C558.529 82.3733 564.631 80.88 571.457 80.88C578.113 80.88 584.044 82.3307 589.249 85.232C594.455 88.1333 598.551 92.2293 601.537 97.52C604.524 102.811 606.017 109.04 606.017 116.208C606.017 116.891 605.975 117.659 605.889 118.512C605.889 119.365 605.847 120.176 605.761 120.944H548.801V110.32H597.313L591.041 113.648C591.127 109.723 590.316 106.267 588.609 103.28C586.903 100.293 584.556 97.9467 581.569 96.24C578.668 94.5333 575.297 93.68 571.457 93.68C567.532 93.68 564.076 94.5333 561.089 96.24C558.188 97.9467 555.884 100.336 554.177 103.408C552.556 106.395 551.745 109.936 551.745 114.032V116.592C551.745 120.688 552.684 124.315 554.561 127.472C556.439 130.629 559.084 133.061 562.497 134.768C565.911 136.475 569.836 137.328 574.273 137.328C578.113 137.328 581.569 136.731 584.641 135.536C587.713 134.341 590.444 132.464 592.833 129.904L601.409 139.76C598.337 143.344 594.455 146.117 589.761 148.08C585.153 149.957 579.863 150.896 573.889 150.896Z" fill="currentColor"/>
<path d="M650.186 150.896C643.018 150.896 636.618 149.403 630.986 146.416C625.44 143.344 621.088 139.163 617.93 133.872C614.773 128.581 613.194 122.565 613.194 115.824C613.194 108.997 614.773 102.981 617.93 97.776C621.088 92.4853 625.44 88.3467 630.986 85.36C636.618 82.3733 643.018 80.88 650.186 80.88C656.842 80.88 662.688 82.2453 667.722 84.976C672.842 87.6213 676.725 91.5467 679.37 96.752L667.082 103.92C665.034 100.677 662.517 98.288 659.53 96.752C656.629 95.216 653.472 94.448 650.058 94.448C646.133 94.448 642.592 95.3013 639.434 97.008C636.277 98.7147 633.802 101.189 632.01 104.432C630.218 107.589 629.322 111.387 629.322 115.824C629.322 120.261 630.218 124.101 632.01 127.344C633.802 130.501 636.277 132.933 639.434 134.64C642.592 136.347 646.133 137.2 650.058 137.2C653.472 137.2 656.629 136.432 659.53 134.896C662.517 133.36 665.034 130.971 667.082 127.728L679.37 134.896C676.725 140.016 672.842 143.984 667.722 146.8C662.688 149.531 656.842 150.896 650.186 150.896Z" fill="currentColor"/>
<path d="M717.244 150.896C709.735 150.896 703.932 148.976 699.836 145.136C695.74 141.211 693.692 135.451 693.692 127.856V66.544H709.692V127.472C709.692 130.715 710.503 133.232 712.124 135.024C713.831 136.816 716.178 137.712 719.164 137.712C722.748 137.712 725.735 136.773 728.124 134.896L732.604 146.288C730.727 147.824 728.423 148.976 725.692 149.744C722.962 150.512 720.146 150.896 717.244 150.896ZM682.428 94.448V81.648H727.996V94.448H682.428Z" fill="currentColor"/>
<path d="M743.206 150V81.648H758.438V100.464L756.646 94.96C758.694 90.352 761.894 86.8533 766.246 84.464C770.684 82.0747 776.188 80.88 782.758 80.88V96.112C782.076 95.9413 781.436 95.856 780.838 95.856C780.241 95.7707 779.644 95.728 779.046 95.728C772.988 95.728 768.166 97.52 764.582 101.104C760.998 104.603 759.206 109.851 759.206 116.848V150H743.206Z" fill="currentColor"/>
<path d="M793.771 150V55.024H809.771V150H793.771Z" fill="currentColor"/>
<defs>
<linearGradient id="paint0_linear_32_235" x1="62.8129" y1="55.0235" x2="34.2421" y2="74.6356" gradientUnits="userSpaceOnUse">
<stop stop-color="#05A4F8"/>
<stop offset="1" stop-color="#0088EB"/>
</linearGradient>
<linearGradient id="paint1_linear_32_235" x1="117.049" y1="25" x2="62.813" y2="45.5806" gradientUnits="userSpaceOnUse">
<stop stop-color="#05A4F8"/>
<stop offset="1" stop-color="#005DC5"/>
</linearGradient>
<linearGradient id="paint2_linear_32_235" x1="76.614" y1="106.354" x2="36.9055" y2="122.818" gradientUnits="userSpaceOnUse">
<stop stop-color="#0589EE"/>
<stop offset="1" stop-color="#0E6EDF"/>
</linearGradient>
</defs>
</svg>
